<?xml version="1.0" encoding="utf-8" standalone="no"?>
<!DOCTYPE svg PUBLIC "-//W3C//DTD SVG 1.1//EN"
  "http://www.w3.org/Graphics/SVG/1.1/DTD/svg11.dtd">
<svg height="640.440385pt" version="1.1" viewBox="0 0 1145.021875 640.440385" width="1145.021875pt" xmlns="http://www.w3.org/2000/svg" xmlns:xlink="http://www.w3.org/1999/xlink">
 <metadata>
  <rdf:RDF xmlns:cc="http://creativecommons.org/ns#" xmlns:dc="http://purl.org/dc/elements/1.1/" xmlns:rdf="http://www.w3.org/1999/02/22-rdf-syntax-ns#">
   <cc:Work>
    <dc:type rdf:resource="http://purl.org/dc/dcmitype/StillImage"/>
    <dc:date>2022-01-25T07:48:00.786724</dc:date>
    <dc:format>image/svg+xml</dc:format>
    <dc:creator>
     <cc:Agent>
      <dc:title>Matplotlib v3.4.3, https://matplotlib.org/</dc:title>
     </cc:Agent>
    </dc:creator>
   </cc:Work>
  </rdf:RDF>
 </metadata>
 <defs>
  <style type="text/css">*{stroke-linecap:butt;stroke-linejoin:round;}</style>
 </defs>
 <g id="figure_1">
  <g id="patch_1">
   <path d="M 0 640.440385 
L 1145.021875 640.440385 
L 1145.021875 0 
L 0 0 
z
" style="fill:#ffffff;"/>
  </g>
  <g id="axes_1">
   <g id="patch_2">
    <path d="M 21.821875 609.309375 
L 1137.821875 609.309375 
L 1137.821875 21.789375 
L 21.821875 21.789375 
z
" style="fill:#eaeaf2;"/>
   </g>
   <g id="matplotlib.axis_1">
    <g id="xtick_1">
     <g id="line2d_1">
      <path clip-path="url(#pa0c53f9025)" d="M 37.065637 609.309375 
L 37.065637 21.789375 
" style="fill:none;stroke:#ffffff;stroke-linecap:round;stroke-width:0.8;"/>
     </g>
     <g id="line2d_2"/>
     <g id="text_1">
      <!-- 17:00 -->
      <g style="fill:#262626;" transform="translate(14.402308 631.51916)rotate(-30)scale(0.1 -0.1)">
       <defs>
        <path d="M 2384 0 
L 1822 0 
L 1822 3584 
Q 1619 3391 1289 3197 
Q 959 3003 697 2906 
L 697 3450 
Q 1169 3672 1522 3987 
Q 1875 4303 2022 4600 
L 2384 4600 
L 2384 0 
z
" id="ArialMT-31" transform="scale(0.015625)"/>
        <path d="M 303 3981 
L 303 4522 
L 3269 4522 
L 3269 4084 
Q 2831 3619 2401 2847 
Q 1972 2075 1738 1259 
Q 1569 684 1522 0 
L 944 0 
Q 953 541 1156 1306 
Q 1359 2072 1739 2783 
Q 2119 3494 2547 3981 
L 303 3981 
z
" id="ArialMT-37" transform="scale(0.015625)"/>
        <path d="M 578 2678 
L 578 3319 
L 1219 3319 
L 1219 2678 
L 578 2678 
z
M 578 0 
L 578 641 
L 1219 641 
L 1219 0 
L 578 0 
z
" id="ArialMT-3a" transform="scale(0.015625)"/>
        <path d="M 266 2259 
Q 266 3072 433 3567 
Q 600 4063 929 4331 
Q 1259 4600 1759 4600 
Q 2128 4600 2406 4451 
Q 2684 4303 2865 4023 
Q 3047 3744 3150 3342 
Q 3253 2941 3253 2259 
Q 3253 1453 3087 958 
Q 2922 463 2592 192 
Q 2263 -78 1759 -78 
Q 1097 -78 719 397 
Q 266 969 266 2259 
z
M 844 2259 
Q 844 1131 1108 757 
Q 1372 384 1759 384 
Q 2147 384 2411 759 
Q 2675 1134 2675 2259 
Q 2675 3391 2411 3762 
Q 2147 4134 1753 4134 
Q 1366 4134 1134 3806 
Q 844 3388 844 2259 
z
" id="ArialMT-30" transform="scale(0.015625)"/>
       </defs>
       <use xlink:href="#ArialMT-31"/>
       <use x="55.615234" xlink:href="#ArialMT-37"/>
       <use x="111.230469" xlink:href="#ArialMT-3a"/>
       <use x="139.013672" xlink:href="#ArialMT-30"/>
       <use x="194.628906" xlink:href="#ArialMT-30"/>
      </g>
     </g>
    </g>
    <g id="xtick_2">
     <g id="line2d_3">
      <path clip-path="url(#pa0c53f9025)" d="M 187.740139 609.309375 
L 187.740139 21.789375 
" style="fill:none;stroke:#ffffff;stroke-linecap:round;stroke-width:0.8;"/>
     </g>
     <g id="line2d_4"/>
     <g id="text_2">
      <!-- 18:00 -->
      <g style="fill:#262626;" transform="translate(165.07681 631.51916)rotate(-30)scale(0.1 -0.1)">
       <defs>
        <path d="M 1131 2484 
Q 781 2613 612 2850 
Q 444 3088 444 3419 
Q 444 3919 803 4259 
Q 1163 4600 1759 4600 
Q 2359 4600 2725 4251 
Q 3091 3903 3091 3403 
Q 3091 3084 2923 2848 
Q 2756 2613 2416 2484 
Q 2838 2347 3058 2040 
Q 3278 1734 3278 1309 
Q 3278 722 2862 322 
Q 2447 -78 1769 -78 
Q 1091 -78 675 323 
Q 259 725 259 1325 
Q 259 1772 486 2073 
Q 713 2375 1131 2484 
z
M 1019 3438 
Q 1019 3113 1228 2906 
Q 1438 2700 1772 2700 
Q 2097 2700 2305 2904 
Q 2513 3109 2513 3406 
Q 2513 3716 2298 3927 
Q 2084 4138 1766 4138 
Q 1444 4138 1231 3931 
Q 1019 3725 1019 3438 
z
M 838 1322 
Q 838 1081 952 856 
Q 1066 631 1291 507 
Q 1516 384 1775 384 
Q 2178 384 2440 643 
Q 2703 903 2703 1303 
Q 2703 1709 2433 1975 
Q 2163 2241 1756 2241 
Q 1359 2241 1098 1978 
Q 838 1716 838 1322 
z
" id="ArialMT-38" transform="scale(0.015625)"/>
       </defs>
       <use xlink:href="#ArialMT-31"/>
       <use x="55.615234" xlink:href="#ArialMT-38"/>
       <use x="111.230469" xlink:href="#ArialMT-3a"/>
       <use x="139.013672" xlink:href="#ArialMT-30"/>
       <use x="194.628906" xlink:href="#ArialMT-30"/>
      </g>
     </g>
    </g>
    <g id="xtick_3">
     <g id="line2d_5">
      <path clip-path="url(#pa0c53f9025)" d="M 338.414641 609.309375 
L 338.414641 21.789375 
" style="fill:none;stroke:#ffffff;stroke-linecap:round;stroke-width:0.8;"/>
     </g>
     <g id="line2d_6"/>
     <g id="text_3">
      <!-- 19:00 -->
      <g style="fill:#262626;" transform="translate(315.751312 631.51916)rotate(-30)scale(0.1 -0.1)">
       <defs>
        <path d="M 350 1059 
L 891 1109 
Q 959 728 1153 556 
Q 1347 384 1650 384 
Q 1909 384 2104 503 
Q 2300 622 2425 820 
Q 2550 1019 2634 1356 
Q 2719 1694 2719 2044 
Q 2719 2081 2716 2156 
Q 2547 1888 2255 1720 
Q 1963 1553 1622 1553 
Q 1053 1553 659 1965 
Q 266 2378 266 3053 
Q 266 3750 677 4175 
Q 1088 4600 1706 4600 
Q 2153 4600 2523 4359 
Q 2894 4119 3086 3673 
Q 3278 3228 3278 2384 
Q 3278 1506 3087 986 
Q 2897 466 2520 194 
Q 2144 -78 1638 -78 
Q 1100 -78 759 220 
Q 419 519 350 1059 
z
M 2653 3081 
Q 2653 3566 2395 3850 
Q 2138 4134 1775 4134 
Q 1400 4134 1122 3828 
Q 844 3522 844 3034 
Q 844 2597 1108 2323 
Q 1372 2050 1759 2050 
Q 2150 2050 2401 2323 
Q 2653 2597 2653 3081 
z
" id="ArialMT-39" transform="scale(0.015625)"/>
       </defs>
       <use xlink:href="#ArialMT-31"/>
       <use x="55.615234" xlink:href="#ArialMT-39"/>
       <use x="111.230469" xlink:href="#ArialMT-3a"/>
       <use x="139.013672" xlink:href="#ArialMT-30"/>
       <use x="194.628906" xlink:href="#ArialMT-30"/>
      </g>
     </g>
    </g>
    <g id="xtick_4">
     <g id="line2d_7">
      <path clip-path="url(#pa0c53f9025)" d="M 489.089143 609.309375 
L 489.089143 21.789375 
" style="fill:none;stroke:#ffffff;stroke-linecap:round;stroke-width:0.8;"/>
     </g>
     <g id="line2d_8"/>
     <g id="text_4">
      <!-- 20:00 -->
      <g style="fill:#262626;" transform="translate(466.425814 631.51916)rotate(-30)scale(0.1 -0.1)">
       <defs>
        <path d="M 3222 541 
L 3222 0 
L 194 0 
Q 188 203 259 391 
Q 375 700 629 1000 
Q 884 1300 1366 1694 
Q 2113 2306 2375 2664 
Q 2638 3022 2638 3341 
Q 2638 3675 2398 3904 
Q 2159 4134 1775 4134 
Q 1369 4134 1125 3890 
Q 881 3647 878 3216 
L 300 3275 
Q 359 3922 746 4261 
Q 1134 4600 1788 4600 
Q 2447 4600 2831 4234 
Q 3216 3869 3216 3328 
Q 3216 3053 3103 2787 
Q 2991 2522 2730 2228 
Q 2469 1934 1863 1422 
Q 1356 997 1212 845 
Q 1069 694 975 541 
L 3222 541 
z
" id="ArialMT-32" transform="scale(0.015625)"/>
       </defs>
       <use xlink:href="#ArialMT-32"/>
       <use x="55.615234" xlink:href="#ArialMT-30"/>
       <use x="111.230469" xlink:href="#ArialMT-3a"/>
       <use x="139.013672" xlink:href="#ArialMT-30"/>
       <use x="194.628906" xlink:href="#ArialMT-30"/>
      </g>
     </g>
    </g>
    <g id="xtick_5">
     <g id="line2d_9">
      <path clip-path="url(#pa0c53f9025)" d="M 639.763645 609.309375 
L 639.763645 21.789375 
" style="fill:none;stroke:#ffffff;stroke-linecap:round;stroke-width:0.8;"/>
     </g>
     <g id="line2d_10"/>
     <g id="text_5">
      <!-- 21:00 -->
      <g style="fill:#262626;" transform="translate(617.100315 631.51916)rotate(-30)scale(0.1 -0.1)">
       <use xlink:href="#ArialMT-32"/>
       <use x="55.615234" xlink:href="#ArialMT-31"/>
       <use x="111.230469" xlink:href="#ArialMT-3a"/>
       <use x="139.013672" xlink:href="#ArialMT-30"/>
       <use x="194.628906" xlink:href="#ArialMT-30"/>
      </g>
     </g>
    </g>
    <g id="xtick_6">
     <g id="line2d_11">
      <path clip-path="url(#pa0c53f9025)" d="M 790.438147 609.309375 
L 790.438147 21.789375 
" style="fill:none;stroke:#ffffff;stroke-linecap:round;stroke-width:0.8;"/>
     </g>
     <g id="line2d_12"/>
     <g id="text_6">
      <!-- 22:00 -->
      <g style="fill:#262626;" transform="translate(767.774817 631.51916)rotate(-30)scale(0.1 -0.1)">
       <use xlink:href="#ArialMT-32"/>
       <use x="55.615234" xlink:href="#ArialMT-32"/>
       <use x="111.230469" xlink:href="#ArialMT-3a"/>
       <use x="139.013672" xlink:href="#ArialMT-30"/>
       <use x="194.628906" xlink:href="#ArialMT-30"/>
      </g>
     </g>
    </g>
    <g id="xtick_7">
     <g id="line2d_13">
      <path clip-path="url(#pa0c53f9025)" d="M 941.112649 609.309375 
L 941.112649 21.789375 
" style="fill:none;stroke:#ffffff;stroke-linecap:round;stroke-width:0.8;"/>
     </g>
     <g id="line2d_14"/>
     <g id="text_7">
      <!-- 23:00 -->
      <g style="fill:#262626;" transform="translate(918.449319 631.51916)rotate(-30)scale(0.1 -0.1)">
       <defs>
        <path d="M 269 1209 
L 831 1284 
Q 928 806 1161 595 
Q 1394 384 1728 384 
Q 2125 384 2398 659 
Q 2672 934 2672 1341 
Q 2672 1728 2419 1979 
Q 2166 2231 1775 2231 
Q 1616 2231 1378 2169 
L 1441 2663 
Q 1497 2656 1531 2656 
Q 1891 2656 2178 2843 
Q 2466 3031 2466 3422 
Q 2466 3731 2256 3934 
Q 2047 4138 1716 4138 
Q 1388 4138 1169 3931 
Q 950 3725 888 3313 
L 325 3413 
Q 428 3978 793 4289 
Q 1159 4600 1703 4600 
Q 2078 4600 2393 4439 
Q 2709 4278 2876 4000 
Q 3044 3722 3044 3409 
Q 3044 3113 2884 2869 
Q 2725 2625 2413 2481 
Q 2819 2388 3044 2092 
Q 3269 1797 3269 1353 
Q 3269 753 2831 336 
Q 2394 -81 1725 -81 
Q 1122 -81 723 278 
Q 325 638 269 1209 
z
" id="ArialMT-33" transform="scale(0.015625)"/>
       </defs>
       <use xlink:href="#ArialMT-32"/>
       <use x="55.615234" xlink:href="#ArialMT-33"/>
       <use x="111.230469" xlink:href="#ArialMT-3a"/>
       <use x="139.013672" xlink:href="#ArialMT-30"/>
       <use x="194.628906" xlink:href="#ArialMT-30"/>
      </g>
     </g>
    </g>
    <g id="xtick_8">
     <g id="line2d_15">
      <path clip-path="url(#pa0c53f9025)" d="M 1091.78715 609.309375 
L 1091.78715 21.789375 
" style="fill:none;stroke:#ffffff;stroke-linecap:round;stroke-width:0.8;"/>
     </g>
     <g id="line2d_16"/>
     <g id="text_8">
      <!-- 00:00 -->
      <g style="fill:#262626;" transform="translate(1069.123821 631.51916)rotate(-30)scale(0.1 -0.1)">
       <use xlink:href="#ArialMT-30"/>
       <use x="55.615234" xlink:href="#ArialMT-30"/>
       <use x="111.230469" xlink:href="#ArialMT-3a"/>
       <use x="139.013672" xlink:href="#ArialMT-30"/>
       <use x="194.628906" xlink:href="#ArialMT-30"/>
      </g>
     </g>
    </g>
   </g>
   <g id="matplotlib.axis_2">
    <g id="ytick_1">
     <g id="line2d_17">
      <path clip-path="url(#pa0c53f9025)" d="M 21.821875 595.719216 
L 1137.821875 595.719216 
" style="fill:none;stroke:#ffffff;stroke-linecap:round;stroke-width:0.8;"/>
     </g>
     <g id="line2d_18"/>
     <g id="text_9">
      <!-- 8 -->
      <g style="fill:#262626;" transform="translate(12.760938 599.298122)scale(0.1 -0.1)">
       <use xlink:href="#ArialMT-38"/>
      </g>
     </g>
    </g>
    <g id="ytick_2">
     <g id="line2d_19">
      <path clip-path="url(#pa0c53f9025)" d="M 21.821875 505.268904 
L 1137.821875 505.268904 
" style="fill:none;stroke:#ffffff;stroke-linecap:round;stroke-width:0.8;"/>
     </g>
     <g id="line2d_20"/>
     <g id="text_10">
      <!-- 10 -->
      <g style="fill:#262626;" transform="translate(7.2 508.84781)scale(0.1 -0.1)">
       <use xlink:href="#ArialMT-31"/>
       <use x="55.615234" xlink:href="#ArialMT-30"/>
      </g>
     </g>
    </g>
    <g id="ytick_3">
     <g id="line2d_21">
      <path clip-path="url(#pa0c53f9025)" d="M 21.821875 414.818592 
L 1137.821875 414.818592 
" style="fill:none;stroke:#ffffff;stroke-linecap:round;stroke-width:0.8;"/>
     </g>
     <g id="line2d_22"/>
     <g id="text_11">
      <!-- 12 -->
      <g style="fill:#262626;" transform="translate(7.2 418.397498)scale(0.1 -0.1)">
       <use xlink:href="#ArialMT-31"/>
       <use x="55.615234" xlink:href="#ArialMT-32"/>
      </g>
     </g>
    </g>
    <g id="ytick_4">
     <g id="line2d_23">
      <path clip-path="url(#pa0c53f9025)" d="M 21.821875 324.36828 
L 1137.821875 324.36828 
" style="fill:none;stroke:#ffffff;stroke-linecap:round;stroke-width:0.8;"/>
     </g>
     <g id="line2d_24"/>
     <g id="text_12">
      <!-- 14 -->
      <g style="fill:#262626;" transform="translate(7.2 327.947187)scale(0.1 -0.1)">
       <defs>
        <path d="M 2069 0 
L 2069 1097 
L 81 1097 
L 81 1613 
L 2172 4581 
L 2631 4581 
L 2631 1613 
L 3250 1613 
L 3250 1097 
L 2631 1097 
L 2631 0 
L 2069 0 
z
M 2069 1613 
L 2069 3678 
L 634 1613 
L 2069 1613 
z
" id="ArialMT-34" transform="scale(0.015625)"/>
       </defs>
       <use xlink:href="#ArialMT-31"/>
       <use x="55.615234" xlink:href="#ArialMT-34"/>
      </g>
     </g>
    </g>
    <g id="ytick_5">
     <g id="line2d_25">
      <path clip-path="url(#pa0c53f9025)" d="M 21.821875 233.917969 
L 1137.821875 233.917969 
" style="fill:none;stroke:#ffffff;stroke-linecap:round;stroke-width:0.8;"/>
     </g>
     <g id="line2d_26"/>
     <g id="text_13">
      <!-- 16 -->
      <g style="fill:#262626;" transform="translate(7.2 237.496875)scale(0.1 -0.1)">
       <defs>
        <path d="M 3184 3459 
L 2625 3416 
Q 2550 3747 2413 3897 
Q 2184 4138 1850 4138 
Q 1581 4138 1378 3988 
Q 1113 3794 959 3422 
Q 806 3050 800 2363 
Q 1003 2672 1297 2822 
Q 1591 2972 1913 2972 
Q 2475 2972 2870 2558 
Q 3266 2144 3266 1488 
Q 3266 1056 3080 686 
Q 2894 316 2569 119 
Q 2244 -78 1831 -78 
Q 1128 -78 684 439 
Q 241 956 241 2144 
Q 241 3472 731 4075 
Q 1159 4600 1884 4600 
Q 2425 4600 2770 4297 
Q 3116 3994 3184 3459 
z
M 888 1484 
Q 888 1194 1011 928 
Q 1134 663 1356 523 
Q 1578 384 1822 384 
Q 2178 384 2434 671 
Q 2691 959 2691 1453 
Q 2691 1928 2437 2201 
Q 2184 2475 1800 2475 
Q 1419 2475 1153 2201 
Q 888 1928 888 1484 
z
" id="ArialMT-36" transform="scale(0.015625)"/>
       </defs>
       <use xlink:href="#ArialMT-31"/>
       <use x="55.615234" xlink:href="#ArialMT-36"/>
      </g>
     </g>
    </g>
    <g id="ytick_6">
     <g id="line2d_27">
      <path clip-path="url(#pa0c53f9025)" d="M 21.821875 143.467657 
L 1137.821875 143.467657 
" style="fill:none;stroke:#ffffff;stroke-linecap:round;stroke-width:0.8;"/>
     </g>
     <g id="line2d_28"/>
     <g id="text_14">
      <!-- 18 -->
      <g style="fill:#262626;" transform="translate(7.2 147.046563)scale(0.1 -0.1)">
       <use xlink:href="#ArialMT-31"/>
       <use x="55.615234" xlink:href="#ArialMT-38"/>
      </g>
     </g>
    </g>
    <g id="ytick_7">
     <g id="line2d_29">
      <path clip-path="url(#pa0c53f9025)" d="M 21.821875 53.017345 
L 1137.821875 53.017345 
" style="fill:none;stroke:#ffffff;stroke-linecap:round;stroke-width:0.8;"/>
     </g>
     <g id="line2d_30"/>
     <g id="text_15">
      <!-- 20 -->
      <g style="fill:#262626;" transform="translate(7.2 56.596251)scale(0.1 -0.1)">
       <use xlink:href="#ArialMT-32"/>
       <use x="55.615234" xlink:href="#ArialMT-30"/>
      </g>
     </g>
    </g>
   </g>
   <g id="line2d_31">
    <path clip-path="url(#pa0c53f9025)" d="M 72.549148 306.278218 
L 77.56167 328.890796 
L 82.59018 342.458343 
L 87.609273 360.548405 
L 118.333395 419.341108 
L 122.763811 428.386139 
L 132.839331 437.43117 
L 137.855997 446.476201 
L 142.870026 446.476201 
L 147.882841 455.521232 
L 152.898209 460.043748 
L 157.953841 460.043748 
L 167.981648 469.088779 
L 172.995718 469.088779 
L 183.032733 478.13381 
L 188.094015 478.13381 
L 193.110178 482.656326 
L 203.141333 482.656326 
L 208.158543 487.178842 
L 218.198739 487.178842 
L 223.217079 491.701357 
L 238.284403 491.701357 
L 243.34648 496.223873 
L 268.472709 496.223873 
L 273.445889 500.746388 
L 338.752068 500.746388 
L 343.768022 505.268904 
L 404.036316 505.268904 
L 409.050136 509.791419 
L 519.561261 509.791419 
L 524.578011 514.313935 
L 665.217507 514.313935 
L 670.230908 518.836451 
L 675.246444 514.313935 
L 680.267295 514.313935 
L 685.294382 518.836451 
L 690.309834 514.313935 
L 695.324281 514.313935 
L 700.383889 518.836451 
L 810.870572 518.836451 
L 815.883638 523.358966 
L 1067.023001 523.358966 
L 1072.040336 527.881482 
L 1087.094602 527.881482 
L 1087.094602 527.881482 
" style="fill:none;stroke:#1f77b4;stroke-linecap:round;stroke-width:1.5;"/>
   </g>
   <g id="line2d_32">
    <path clip-path="url(#pa0c53f9025)" d="M 72.549148 265.575578 
L 77.56167 242.963 
L 82.59018 211.305391 
L 87.609273 188.692813 
L 118.333395 102.765017 
L 122.763811 98.242501 
L 127.821159 102.765017 
L 132.839331 152.512688 
L 137.855997 170.60275 
L 142.870026 193.215328 
L 147.882841 206.782875 
L 152.898209 224.872937 
L 157.953841 233.917969 
L 162.968791 252.008031 
L 167.981648 261.053062 
L 172.995718 274.620609 
L 178.01657 279.143125 
L 183.032733 292.710671 
L 188.094015 297.233187 
L 193.110178 306.278218 
L 198.127221 310.800734 
L 203.141333 319.845765 
L 218.198739 333.413312 
L 223.217079 342.458343 
L 228.277356 342.458343 
L 233.263845 351.503374 
L 238.284403 351.503374 
L 253.383579 365.070921 
L 258.401584 365.070921 
L 268.472709 374.115952 
L 273.445889 374.115952 
L 278.460629 378.638467 
L 283.517768 378.638467 
L 288.535521 383.160983 
L 298.571406 383.160983 
L 303.588909 387.683499 
L 308.603482 387.683499 
L 313.620398 392.206014 
L 323.696086 392.206014 
L 328.715389 396.72853 
L 348.788622 396.72853 
L 353.804116 401.251045 
L 378.937837 401.251045 
L 383.965008 405.773561 
L 419.094935 405.773561 
L 424.159064 410.296077 
L 479.377376 410.296077 
L 484.396051 414.818592 
L 650.164245 414.818592 
L 655.181371 419.341108 
L 991.68801 419.341108 
L 996.699528 423.863623 
L 1087.094602 423.863623 
L 1087.094602 423.863623 
" style="fill:none;stroke:#ff7f0e;stroke-linecap:round;stroke-width:1.5;"/>
   </g>
   <g id="line2d_33">
    <path clip-path="url(#pa0c53f9025)" d="M 72.549148 315.323249 
L 77.56167 333.413312 
L 82.59018 346.980858 
L 87.609273 365.070921 
L 118.333395 428.386139 
L 122.763811 432.908655 
L 132.839331 450.998717 
L 167.981648 482.656326 
L 172.995718 482.656326 
L 183.032733 491.701357 
L 188.094015 491.701357 
L 193.110178 496.223873 
L 198.127221 496.223873 
L 203.141333 500.746388 
L 208.158543 500.746388 
L 213.182115 505.268904 
L 223.217079 505.268904 
L 228.277356 509.791419 
L 243.34648 509.791419 
L 248.362435 514.313935 
L 253.383579 514.313935 
L 258.401584 518.836451 
L 283.517768 518.836451 
L 288.535521 523.358966 
L 328.715389 523.358966 
L 333.734021 527.881482 
L 434.182183 527.881482 
L 439.204122 532.403997 
L 594.91743 532.403997 
L 599.934431 536.926513 
L 810.870572 536.926513 
L 815.883638 541.449029 
L 1036.872238 541.449029 
L 1041.887899 545.971544 
L 1087.094602 545.971544 
L 1087.094602 545.971544 
" style="fill:none;stroke:#2ca02c;stroke-linecap:round;stroke-width:1.5;"/>
   </g>
   <g id="line2d_34">
    <path clip-path="url(#pa0c53f9025)" d="M 72.549148 211.305391 
L 77.56167 247.485515 
L 82.59018 288.188156 
L 87.609273 306.278218 
L 118.333395 405.773561 
L 122.763811 414.818592 
L 142.870026 450.998717 
L 147.882841 455.521232 
L 152.898209 464.566264 
L 157.953841 469.088779 
L 162.968791 478.13381 
L 188.094015 500.746388 
L 193.110178 500.746388 
L 203.141333 509.791419 
L 208.158543 509.791419 
L 213.182115 514.313935 
L 218.198739 514.313935 
L 228.277356 523.358966 
L 238.284403 523.358966 
L 243.34648 527.881482 
L 253.383579 527.881482 
L 258.401584 532.403997 
L 278.460629 532.403997 
L 283.517768 536.926513 
L 308.603482 536.926513 
L 313.620398 541.449029 
L 363.837741 541.449029 
L 368.898186 545.971544 
L 373.920627 541.449029 
L 378.937837 545.971544 
L 459.270157 545.971544 
L 464.286655 550.49406 
L 474.362468 550.49406 
L 479.377376 545.971544 
L 494.431893 545.971544 
L 499.452535 550.49406 
L 760.654025 550.49406 
L 765.668849 555.016575 
L 770.689365 550.49406 
L 775.703855 555.016575 
L 795.815594 555.016575 
L 800.833515 550.49406 
L 805.852818 555.016575 
L 810.870572 555.016575 
L 815.883638 550.49406 
L 820.90068 555.016575 
L 1006.732733 555.016575 
L 1011.750236 559.539091 
L 1016.763972 555.016575 
L 1021.821069 555.016575 
L 1026.836772 559.539091 
L 1087.094602 559.539091 
L 1087.094602 559.539091 
" style="fill:none;stroke:#d62728;stroke-linecap:round;stroke-width:1.5;"/>
   </g>
   <g id="line2d_35">
    <path clip-path="url(#pa0c53f9025)" d="M 72.549148 138.945141 
L 77.56167 175.125266 
L 82.59018 229.395453 
L 87.609273 261.053062 
L 122.763811 405.773561 
L 127.821159 414.818592 
L 132.839331 428.386139 
L 142.870026 446.476201 
L 147.882841 450.998717 
L 157.953841 469.088779 
L 167.981648 478.13381 
L 172.995718 487.178842 
L 178.01657 487.178842 
L 183.032733 496.223873 
L 188.094015 496.223873 
L 203.141333 509.791419 
L 208.158543 509.791419 
L 218.198739 518.836451 
L 228.277356 518.836451 
L 233.263845 523.358966 
L 238.284403 523.358966 
L 243.34648 527.881482 
L 258.401584 527.881482 
L 263.41984 532.403997 
L 273.445889 532.403997 
L 278.460629 536.926513 
L 308.603482 536.926513 
L 313.620398 541.449029 
L 358.822163 541.449029 
L 363.837741 545.971544 
L 464.286655 545.971544 
L 469.344714 550.49406 
L 710.427015 550.49406 
L 715.443764 555.016575 
L 1031.853563 555.016575 
L 1036.872238 559.539091 
L 1087.094602 559.539091 
L 1087.094602 559.539091 
" style="fill:none;stroke:#9467bd;stroke-linecap:round;stroke-width:1.5;"/>
   </g>
   <g id="line2d_36">
    <path clip-path="url(#pa0c53f9025)" d="M 72.549148 540.092274 
L 77.56167 544.162538 
L 82.59018 545.067041 
L 87.609273 546.876047 
L 118.333395 562.704852 
L 122.763811 562.2526 
L 127.821159 563.157103 
L 132.839331 563.157103 
L 137.855997 562.704852 
L 142.870026 564.061607 
L 147.882841 564.513858 
L 152.898209 563.609355 
L 157.953841 564.061607 
L 162.968791 562.704852 
L 167.981648 562.2526 
L 172.995718 562.2526 
L 178.01657 561.800349 
L 183.032733 564.061607 
L 188.094015 562.2526 
L 198.127221 563.157103 
L 203.141333 564.061607 
L 208.158543 563.157103 
L 213.182115 564.061607 
L 218.198739 564.061607 
L 223.217079 565.870613 
L 228.277356 565.870613 
L 233.263845 564.96611 
L 238.284403 565.418361 
L 243.34648 564.513858 
L 248.362435 564.96611 
L 253.383579 564.061607 
L 258.401584 564.96611 
L 268.472709 564.96611 
L 278.460629 563.157103 
L 283.517768 563.609355 
L 288.535521 565.870613 
L 293.558465 565.418361 
L 298.571406 565.418361 
L 303.588909 566.775116 
L 313.620398 565.870613 
L 318.63719 564.96611 
L 328.715389 565.870613 
L 333.734021 568.131871 
L 338.752068 567.227367 
L 343.768022 567.227367 
L 348.788622 566.322864 
L 353.804116 567.679619 
L 358.822163 566.775116 
L 363.837741 567.679619 
L 368.898186 567.227367 
L 373.920627 566.322864 
L 378.937837 567.679619 
L 383.965008 566.775116 
L 393.997963 566.775116 
L 399.016009 567.227367 
L 404.036316 568.584122 
L 409.050136 567.679619 
L 419.094935 568.584122 
L 424.159064 569.488625 
L 429.168823 569.488625 
L 439.204122 571.297631 
L 449.234272 569.488625 
L 454.253491 571.297631 
L 464.286655 571.297631 
L 474.362468 569.488625 
L 479.377376 570.84538 
L 489.412968 569.036374 
L 494.431893 569.036374 
L 499.452535 569.488625 
L 504.506493 571.297631 
L 519.561261 571.297631 
L 524.578011 572.654386 
L 534.621345 571.749883 
L 539.639978 571.749883 
L 544.659992 572.654386 
L 549.674188 573.106638 
L 554.733043 574.011141 
L 559.748871 572.654386 
L 564.760138 573.106638 
L 569.777431 573.106638 
L 574.795855 572.654386 
L 579.811516 573.106638 
L 589.854055 573.106638 
L 594.91743 574.463392 
L 599.934431 574.011141 
L 604.951096 573.106638 
L 609.970776 573.558889 
L 614.992715 574.915644 
L 620.005321 573.558889 
L 625.025628 573.106638 
L 630.040619 573.558889 
L 635.05988 573.558889 
L 640.079099 574.463392 
L 645.141343 573.106638 
L 650.164245 572.202135 
L 655.181371 573.106638 
L 660.200046 574.463392 
L 665.217507 575.367896 
L 670.230908 574.915644 
L 675.246444 574.011141 
L 680.267295 575.367896 
L 695.324281 574.011141 
L 700.383889 575.367896 
L 705.407545 575.820147 
L 715.443764 575.820147 
L 720.461769 575.367896 
L 725.47676 576.72465 
L 730.500039 575.367896 
L 735.518756 576.72465 
L 740.537263 574.915644 
L 745.55192 574.463392 
L 750.615922 574.463392 
L 755.631416 575.820147 
L 760.654025 575.367896 
L 765.668849 575.820147 
L 770.689365 575.367896 
L 775.703855 576.72465 
L 780.722446 577.176902 
L 785.739111 576.272399 
L 790.753768 576.272399 
L 795.815594 577.176902 
L 800.833515 577.176902 
L 810.870572 578.985908 
L 820.90068 578.081405 
L 825.915212 578.985908 
L 841.014889 576.272399 
L 846.028541 576.72465 
L 851.044538 578.985908 
L 856.060282 577.629153 
L 861.077325 578.533656 
L 866.097046 577.629153 
L 871.113209 577.629153 
L 876.16972 578.533656 
L 881.186302 577.629153 
L 886.20121 579.43816 
L 891.214527 578.533656 
L 896.234206 579.890411 
L 901.251542 578.081405 
L 906.264315 578.533656 
L 911.321705 578.081405 
L 916.335985 578.081405 
L 921.355873 578.533656 
L 926.371995 579.43816 
L 936.408046 579.43816 
L 941.426303 578.985908 
L 946.483232 579.43816 
L 951.497637 580.342663 
L 956.515308 580.342663 
L 961.539298 581.247166 
L 976.588667 578.533656 
L 986.629281 579.43816 
L 991.68801 578.081405 
L 996.699528 579.890411 
L 1001.715858 579.43816 
L 1006.732733 580.342663 
L 1011.750236 578.985908 
L 1016.763972 581.247166 
L 1026.836772 578.533656 
L 1031.853563 579.890411 
L 1036.872238 580.342663 
L 1041.887899 579.890411 
L 1046.909252 581.699417 
L 1051.927969 580.342663 
L 1061.968081 582.151669 
L 1067.023001 582.151669 
L 1072.040336 582.60392 
L 1077.06148 582.151669 
L 1082.081369 581.247166 
L 1087.094602 581.699417 
L 1087.094602 581.699417 
" style="fill:none;stroke:#8c564b;stroke-linecap:round;stroke-width:1.5;"/>
   </g>
   <g id="line2d_37">
    <path clip-path="url(#pa0c53f9025)" d="M 72.549148 66.584892 
L 77.56167 66.584892 
L 82.59018 62.062376 
L 87.609273 62.062376 
L 118.333395 57.539861 
L 122.763811 57.539861 
L 127.821159 53.017345 
L 188.094015 53.017345 
L 193.110178 48.49483 
L 268.472709 48.49483 
L 273.445889 53.017345 
L 288.535521 53.017345 
L 293.558465 57.539861 
L 298.571406 57.539861 
L 303.588909 62.062376 
L 308.603482 62.062376 
L 313.620398 66.584892 
L 328.715389 66.584892 
L 333.734021 71.107407 
L 348.788622 71.107407 
L 353.804116 75.629923 
L 368.898186 75.629923 
L 373.920627 80.152439 
L 383.965008 80.152439 
L 388.981632 84.674954 
L 409.050136 84.674954 
L 414.073582 89.19747 
L 439.204122 89.19747 
L 444.219574 93.719985 
L 484.396051 93.719985 
L 489.412968 98.242501 
L 534.621345 98.242501 
L 539.639978 102.765017 
L 579.811516 102.765017 
L 584.831739 107.287532 
L 660.200046 107.287532 
L 665.217507 111.810048 
L 735.518756 111.810048 
L 740.537263 116.332563 
L 881.186302 116.332563 
L 886.20121 120.855079 
L 1087.094602 120.855079 
L 1087.094602 120.855079 
" style="fill:none;stroke:#e377c2;stroke-linecap:round;stroke-width:1.5;"/>
   </g>
   <g id="patch_3">
    <path d="M 21.821875 609.309375 
L 21.821875 21.789375 
" style="fill:none;"/>
   </g>
   <g id="patch_4">
    <path d="M 1137.821875 609.309375 
L 1137.821875 21.789375 
" style="fill:none;"/>
   </g>
   <g id="patch_5">
    <path d="M 21.821875 609.309375 
L 1137.821875 609.309375 
" style="fill:none;"/>
   </g>
   <g id="patch_6">
    <path d="M 21.821875 21.789375 
L 1137.821875 21.789375 
" style="fill:none;"/>
   </g>
   <g id="text_16">
    <!-- innentemperatur -->
    <g transform="translate(21.821875 15.789375)scale(0.12 -0.12)">
     <defs>
      <path d="M 425 3934 
L 425 4581 
L 988 4581 
L 988 3934 
L 425 3934 
z
M 425 0 
L 425 3319 
L 988 3319 
L 988 0 
L 425 0 
z
" id="ArialMT-69" transform="scale(0.015625)"/>
      <path d="M 422 0 
L 422 3319 
L 928 3319 
L 928 2847 
Q 1294 3394 1984 3394 
Q 2284 3394 2536 3286 
Q 2788 3178 2913 3003 
Q 3038 2828 3088 2588 
Q 3119 2431 3119 2041 
L 3119 0 
L 2556 0 
L 2556 2019 
Q 2556 2363 2490 2533 
Q 2425 2703 2258 2804 
Q 2091 2906 1866 2906 
Q 1506 2906 1245 2678 
Q 984 2450 984 1813 
L 984 0 
L 422 0 
z
" id="ArialMT-6e" transform="scale(0.015625)"/>
      <path d="M 2694 1069 
L 3275 997 
Q 3138 488 2766 206 
Q 2394 -75 1816 -75 
Q 1088 -75 661 373 
Q 234 822 234 1631 
Q 234 2469 665 2931 
Q 1097 3394 1784 3394 
Q 2450 3394 2872 2941 
Q 3294 2488 3294 1666 
Q 3294 1616 3291 1516 
L 816 1516 
Q 847 969 1125 678 
Q 1403 388 1819 388 
Q 2128 388 2347 550 
Q 2566 713 2694 1069 
z
M 847 1978 
L 2700 1978 
Q 2663 2397 2488 2606 
Q 2219 2931 1791 2931 
Q 1403 2931 1139 2672 
Q 875 2413 847 1978 
z
" id="ArialMT-65" transform="scale(0.015625)"/>
      <path d="M 1650 503 
L 1731 6 
Q 1494 -44 1306 -44 
Q 1000 -44 831 53 
Q 663 150 594 308 
Q 525 466 525 972 
L 525 2881 
L 113 2881 
L 113 3319 
L 525 3319 
L 525 4141 
L 1084 4478 
L 1084 3319 
L 1650 3319 
L 1650 2881 
L 1084 2881 
L 1084 941 
Q 1084 700 1114 631 
Q 1144 563 1211 522 
Q 1278 481 1403 481 
Q 1497 481 1650 503 
z
" id="ArialMT-74" transform="scale(0.015625)"/>
      <path d="M 422 0 
L 422 3319 
L 925 3319 
L 925 2853 
Q 1081 3097 1340 3245 
Q 1600 3394 1931 3394 
Q 2300 3394 2536 3241 
Q 2772 3088 2869 2813 
Q 3263 3394 3894 3394 
Q 4388 3394 4653 3120 
Q 4919 2847 4919 2278 
L 4919 0 
L 4359 0 
L 4359 2091 
Q 4359 2428 4304 2576 
Q 4250 2725 4106 2815 
Q 3963 2906 3769 2906 
Q 3419 2906 3187 2673 
Q 2956 2441 2956 1928 
L 2956 0 
L 2394 0 
L 2394 2156 
Q 2394 2531 2256 2718 
Q 2119 2906 1806 2906 
Q 1569 2906 1367 2781 
Q 1166 2656 1075 2415 
Q 984 2175 984 1722 
L 984 0 
L 422 0 
z
" id="ArialMT-6d" transform="scale(0.015625)"/>
      <path d="M 422 -1272 
L 422 3319 
L 934 3319 
L 934 2888 
Q 1116 3141 1344 3267 
Q 1572 3394 1897 3394 
Q 2322 3394 2647 3175 
Q 2972 2956 3137 2557 
Q 3303 2159 3303 1684 
Q 3303 1175 3120 767 
Q 2938 359 2589 142 
Q 2241 -75 1856 -75 
Q 1575 -75 1351 44 
Q 1128 163 984 344 
L 984 -1272 
L 422 -1272 
z
M 931 1641 
Q 931 1000 1190 694 
Q 1450 388 1819 388 
Q 2194 388 2461 705 
Q 2728 1022 2728 1688 
Q 2728 2322 2467 2637 
Q 2206 2953 1844 2953 
Q 1484 2953 1207 2617 
Q 931 2281 931 1641 
z
" id="ArialMT-70" transform="scale(0.015625)"/>
      <path d="M 416 0 
L 416 3319 
L 922 3319 
L 922 2816 
Q 1116 3169 1280 3281 
Q 1444 3394 1641 3394 
Q 1925 3394 2219 3213 
L 2025 2691 
Q 1819 2813 1613 2813 
Q 1428 2813 1281 2702 
Q 1134 2591 1072 2394 
Q 978 2094 978 1738 
L 978 0 
L 416 0 
z
" id="ArialMT-72" transform="scale(0.015625)"/>
      <path d="M 2588 409 
Q 2275 144 1986 34 
Q 1697 -75 1366 -75 
Q 819 -75 525 192 
Q 231 459 231 875 
Q 231 1119 342 1320 
Q 453 1522 633 1644 
Q 813 1766 1038 1828 
Q 1203 1872 1538 1913 
Q 2219 1994 2541 2106 
Q 2544 2222 2544 2253 
Q 2544 2597 2384 2738 
Q 2169 2928 1744 2928 
Q 1347 2928 1158 2789 
Q 969 2650 878 2297 
L 328 2372 
Q 403 2725 575 2942 
Q 747 3159 1072 3276 
Q 1397 3394 1825 3394 
Q 2250 3394 2515 3294 
Q 2781 3194 2906 3042 
Q 3031 2891 3081 2659 
Q 3109 2516 3109 2141 
L 3109 1391 
Q 3109 606 3145 398 
Q 3181 191 3288 0 
L 2700 0 
Q 2613 175 2588 409 
z
M 2541 1666 
Q 2234 1541 1622 1453 
Q 1275 1403 1131 1340 
Q 988 1278 909 1158 
Q 831 1038 831 891 
Q 831 666 1001 516 
Q 1172 366 1500 366 
Q 1825 366 2078 508 
Q 2331 650 2450 897 
Q 2541 1088 2541 1459 
L 2541 1666 
z
" id="ArialMT-61" transform="scale(0.015625)"/>
      <path d="M 2597 0 
L 2597 488 
Q 2209 -75 1544 -75 
Q 1250 -75 995 37 
Q 741 150 617 320 
Q 494 491 444 738 
Q 409 903 409 1263 
L 409 3319 
L 972 3319 
L 972 1478 
Q 972 1038 1006 884 
Q 1059 663 1231 536 
Q 1403 409 1656 409 
Q 1909 409 2131 539 
Q 2353 669 2445 892 
Q 2538 1116 2538 1541 
L 2538 3319 
L 3100 3319 
L 3100 0 
L 2597 0 
z
" id="ArialMT-75" transform="scale(0.015625)"/>
     </defs>
     <use xlink:href="#ArialMT-69"/>
     <use x="22.216797" xlink:href="#ArialMT-6e"/>
     <use x="77.832031" xlink:href="#ArialMT-6e"/>
     <use x="133.447266" xlink:href="#ArialMT-65"/>
     <use x="189.0625" xlink:href="#ArialMT-6e"/>
     <use x="244.677734" xlink:href="#ArialMT-74"/>
     <use x="272.460938" xlink:href="#ArialMT-65"/>
     <use x="328.076172" xlink:href="#ArialMT-6d"/>
     <use x="411.376953" xlink:href="#ArialMT-70"/>
     <use x="466.992188" xlink:href="#ArialMT-65"/>
     <use x="522.607422" xlink:href="#ArialMT-72"/>
     <use x="555.908203" xlink:href="#ArialMT-61"/>
     <use x="611.523438" xlink:href="#ArialMT-74"/>
     <use x="639.306641" xlink:href="#ArialMT-75"/>
     <use x="694.921875" xlink:href="#ArialMT-72"/>
    </g>
   </g>
   <g id="legend_1">
    <g id="line2d_38">
     <path d="M 1056.904688 272.198594 
L 1076.904688 272.198594 
" style="fill:none;stroke:#1f77b4;stroke-linecap:round;stroke-width:1.5;"/>
    </g>
    <g id="line2d_39"/>
    <g id="text_17">
     <!-- altar -->
     <g style="fill:#262626;" transform="translate(1084.904688 275.698594)scale(0.1 -0.1)">
      <defs>
       <path d="M 409 0 
L 409 4581 
L 972 4581 
L 972 0 
L 409 0 
z
" id="ArialMT-6c" transform="scale(0.015625)"/>
      </defs>
      <use xlink:href="#ArialMT-61"/>
      <use x="55.615234" xlink:href="#ArialMT-6c"/>
      <use x="77.832031" xlink:href="#ArialMT-74"/>
      <use x="105.615234" xlink:href="#ArialMT-61"/>
      <use x="161.230469" xlink:href="#ArialMT-72"/>
     </g>
    </g>
    <g id="line2d_40">
     <path d="M 1056.904688 286.343906 
L 1076.904688 286.343906 
" style="fill:none;stroke:#ff7f0e;stroke-linecap:round;stroke-width:1.5;"/>
    </g>
    <g id="line2d_41"/>
    <g id="text_18">
     <!-- buecherei -->
     <g style="fill:#262626;" transform="translate(1084.904688 289.843906)scale(0.1 -0.1)">
      <defs>
       <path d="M 941 0 
L 419 0 
L 419 4581 
L 981 4581 
L 981 2947 
Q 1338 3394 1891 3394 
Q 2197 3394 2470 3270 
Q 2744 3147 2920 2923 
Q 3097 2700 3197 2384 
Q 3297 2069 3297 1709 
Q 3297 856 2875 390 
Q 2453 -75 1863 -75 
Q 1275 -75 941 416 
L 941 0 
z
M 934 1684 
Q 934 1088 1097 822 
Q 1363 388 1816 388 
Q 2184 388 2453 708 
Q 2722 1028 2722 1663 
Q 2722 2313 2464 2622 
Q 2206 2931 1841 2931 
Q 1472 2931 1203 2611 
Q 934 2291 934 1684 
z
" id="ArialMT-62" transform="scale(0.015625)"/>
       <path d="M 2588 1216 
L 3141 1144 
Q 3050 572 2676 248 
Q 2303 -75 1759 -75 
Q 1078 -75 664 370 
Q 250 816 250 1647 
Q 250 2184 428 2587 
Q 606 2991 970 3192 
Q 1334 3394 1763 3394 
Q 2303 3394 2647 3120 
Q 2991 2847 3088 2344 
L 2541 2259 
Q 2463 2594 2264 2762 
Q 2066 2931 1784 2931 
Q 1359 2931 1093 2626 
Q 828 2322 828 1663 
Q 828 994 1084 691 
Q 1341 388 1753 388 
Q 2084 388 2306 591 
Q 2528 794 2588 1216 
z
" id="ArialMT-63" transform="scale(0.015625)"/>
       <path d="M 422 0 
L 422 4581 
L 984 4581 
L 984 2938 
Q 1378 3394 1978 3394 
Q 2347 3394 2619 3248 
Q 2891 3103 3008 2847 
Q 3125 2591 3125 2103 
L 3125 0 
L 2563 0 
L 2563 2103 
Q 2563 2525 2380 2717 
Q 2197 2909 1863 2909 
Q 1613 2909 1392 2779 
Q 1172 2650 1078 2428 
Q 984 2206 984 1816 
L 984 0 
L 422 0 
z
" id="ArialMT-68" transform="scale(0.015625)"/>
      </defs>
      <use xlink:href="#ArialMT-62"/>
      <use x="55.615234" xlink:href="#ArialMT-75"/>
      <use x="111.230469" xlink:href="#ArialMT-65"/>
      <use x="166.845703" xlink:href="#ArialMT-63"/>
      <use x="216.845703" xlink:href="#ArialMT-68"/>
      <use x="272.460938" xlink:href="#ArialMT-65"/>
      <use x="328.076172" xlink:href="#ArialMT-72"/>
      <use x="361.376953" xlink:href="#ArialMT-65"/>
      <use x="416.992188" xlink:href="#ArialMT-69"/>
     </g>
    </g>
    <g id="line2d_42">
     <path d="M 1056.904688 300.489219 
L 1076.904688 300.489219 
" style="fill:none;stroke:#2ca02c;stroke-linecap:round;stroke-width:1.5;"/>
    </g>
    <g id="line2d_43"/>
    <g id="text_19">
     <!-- empore -->
     <g style="fill:#262626;" transform="translate(1084.904688 303.989219)scale(0.1 -0.1)">
      <defs>
       <path d="M 213 1659 
Q 213 2581 725 3025 
Q 1153 3394 1769 3394 
Q 2453 3394 2887 2945 
Q 3322 2497 3322 1706 
Q 3322 1066 3130 698 
Q 2938 331 2570 128 
Q 2203 -75 1769 -75 
Q 1072 -75 642 372 
Q 213 819 213 1659 
z
M 791 1659 
Q 791 1022 1069 705 
Q 1347 388 1769 388 
Q 2188 388 2466 706 
Q 2744 1025 2744 1678 
Q 2744 2294 2464 2611 
Q 2184 2928 1769 2928 
Q 1347 2928 1069 2612 
Q 791 2297 791 1659 
z
" id="ArialMT-6f" transform="scale(0.015625)"/>
      </defs>
      <use xlink:href="#ArialMT-65"/>
      <use x="55.615234" xlink:href="#ArialMT-6d"/>
      <use x="138.916016" xlink:href="#ArialMT-70"/>
      <use x="194.53125" xlink:href="#ArialMT-6f"/>
      <use x="250.146484" xlink:href="#ArialMT-72"/>
      <use x="283.447266" xlink:href="#ArialMT-65"/>
     </g>
    </g>
    <g id="line2d_44">
     <path d="M 1056.904688 314.634531 
L 1076.904688 314.634531 
" style="fill:none;stroke:#d62728;stroke-linecap:round;stroke-width:1.5;"/>
    </g>
    <g id="line2d_45"/>
    <g id="text_20">
     <!-- hinten -->
     <g style="fill:#262626;" transform="translate(1084.904688 318.134531)scale(0.1 -0.1)">
      <use xlink:href="#ArialMT-68"/>
      <use x="55.615234" xlink:href="#ArialMT-69"/>
      <use x="77.832031" xlink:href="#ArialMT-6e"/>
      <use x="133.447266" xlink:href="#ArialMT-74"/>
      <use x="161.230469" xlink:href="#ArialMT-65"/>
      <use x="216.845703" xlink:href="#ArialMT-6e"/>
     </g>
    </g>
    <g id="line2d_46">
     <path d="M 1056.904688 328.779844 
L 1076.904688 328.779844 
" style="fill:none;stroke:#9467bd;stroke-linecap:round;stroke-width:1.5;"/>
    </g>
    <g id="line2d_47"/>
    <g id="text_21">
     <!-- links -->
     <g style="fill:#262626;" transform="translate(1084.904688 332.279844)scale(0.1 -0.1)">
      <defs>
       <path d="M 425 0 
L 425 4581 
L 988 4581 
L 988 1969 
L 2319 3319 
L 3047 3319 
L 1778 2088 
L 3175 0 
L 2481 0 
L 1384 1697 
L 988 1316 
L 988 0 
L 425 0 
z
" id="ArialMT-6b" transform="scale(0.015625)"/>
       <path d="M 197 991 
L 753 1078 
Q 800 744 1014 566 
Q 1228 388 1613 388 
Q 2000 388 2187 545 
Q 2375 703 2375 916 
Q 2375 1106 2209 1216 
Q 2094 1291 1634 1406 
Q 1016 1563 777 1677 
Q 538 1791 414 1992 
Q 291 2194 291 2438 
Q 291 2659 392 2848 
Q 494 3038 669 3163 
Q 800 3259 1026 3326 
Q 1253 3394 1513 3394 
Q 1903 3394 2198 3281 
Q 2494 3169 2634 2976 
Q 2775 2784 2828 2463 
L 2278 2388 
Q 2241 2644 2061 2787 
Q 1881 2931 1553 2931 
Q 1166 2931 1000 2803 
Q 834 2675 834 2503 
Q 834 2394 903 2306 
Q 972 2216 1119 2156 
Q 1203 2125 1616 2013 
Q 2213 1853 2448 1751 
Q 2684 1650 2818 1456 
Q 2953 1263 2953 975 
Q 2953 694 2789 445 
Q 2625 197 2315 61 
Q 2006 -75 1616 -75 
Q 969 -75 630 194 
Q 291 463 197 991 
z
" id="ArialMT-73" transform="scale(0.015625)"/>
      </defs>
      <use xlink:href="#ArialMT-6c"/>
      <use x="22.216797" xlink:href="#ArialMT-69"/>
      <use x="44.433594" xlink:href="#ArialMT-6e"/>
      <use x="100.048828" xlink:href="#ArialMT-6b"/>
      <use x="150.048828" xlink:href="#ArialMT-73"/>
     </g>
    </g>
    <g id="line2d_48">
     <path d="M 1056.904688 342.925156 
L 1076.904688 342.925156 
" style="fill:none;stroke:#8c564b;stroke-linecap:round;stroke-width:1.5;"/>
    </g>
    <g id="line2d_49"/>
    <g id="text_22">
     <!-- rechts -->
     <g style="fill:#262626;" transform="translate(1084.904688 346.425156)scale(0.1 -0.1)">
      <use xlink:href="#ArialMT-72"/>
      <use x="33.300781" xlink:href="#ArialMT-65"/>
      <use x="88.916016" xlink:href="#ArialMT-63"/>
      <use x="138.916016" xlink:href="#ArialMT-68"/>
      <use x="194.53125" xlink:href="#ArialMT-74"/>
      <use x="222.314453" xlink:href="#ArialMT-73"/>
     </g>
    </g>
    <g id="line2d_50">
     <path d="M 1056.904688 357.070469 
L 1076.904688 357.070469 
" style="fill:none;stroke:#e377c2;stroke-linecap:round;stroke-width:1.5;"/>
    </g>
    <g id="line2d_51"/>
    <g id="text_23">
     <!-- sakristei -->
     <g style="fill:#262626;" transform="translate(1084.904688 360.570469)scale(0.1 -0.1)">
      <use xlink:href="#ArialMT-73"/>
      <use x="50" xlink:href="#ArialMT-61"/>
      <use x="105.615234" xlink:href="#ArialMT-6b"/>
      <use x="155.615234" xlink:href="#ArialMT-72"/>
      <use x="188.916016" xlink:href="#ArialMT-69"/>
      <use x="211.132812" xlink:href="#ArialMT-73"/>
      <use x="261.132812" xlink:href="#ArialMT-74"/>
      <use x="288.916016" xlink:href="#ArialMT-65"/>
      <use x="344.53125" xlink:href="#ArialMT-69"/>
     </g>
    </g>
   </g>
  </g>
 </g>
 <defs>
  <clipPath id="pa0c53f9025">
   <rect height="587.52" width="1116" x="21.821875" y="21.789375"/>
  </clipPath>
 </defs>
</svg>
